<?xml version="1.0" standalone="no"?>
<!DOCTYPE svg PUBLIC "-//W3C//DTD SVG 20010904//EN"
 "http://www.w3.org/TR/2001/REC-SVG-20010904/DTD/svg10.dtd">
<svg version="1.0" xmlns="http://www.w3.org/2000/svg"
 width="1056.000000pt" height="1056.000000pt" viewBox="0 0 1056.000000 1056.000000"
 preserveAspectRatio="xMidYMid meet">
<metadata>
Created by potrace 1.14, written by Peter Selinger 2001-2017
</metadata>
<g transform="translate(0.000000,1056.000000) scale(0.100000,-0.100000)"
fill="#000000" stroke="none">
<path d="M1718 10222 c-24 -3 -25 -5 -17 -35 4 -18 10 -43 13 -57 3 -14 10
-43 15 -65 5 -22 12 -51 15 -65 2 -14 14 -65 26 -115 12 -49 23 -97 25 -105
15 -66 77 -339 81 -355 3 -11 7 -33 10 -50 3 -16 12 -57 21 -90 13 -51 17 -68
22 -94 1 -2 7 1 14 6 11 8 95 9 126 2 10 -3 29 51 73 211 32 118 61 228 64
244 3 16 7 33 9 37 3 4 16 52 30 106 14 54 28 105 31 113 6 14 27 -41 38 -100
3 -14 14 -56 25 -95 29 -107 72 -268 76 -285 2 -8 13 -51 24 -95 12 -44 24
-88 26 -98 7 -31 17 -39 41 -34 12 2 28 1 35 -4 7 -4 22 -3 34 1 14 5 27 4 33
-2 14 -14 18 -4 47 123 13 63 34 155 46 204 21 90 23 100 36 165 9 46 10 50
13 53 1 1 3 9 5 17 1 8 13 60 25 115 12 55 23 109 26 120 7 39 27 121 39 168
8 27 9 49 4 53 -15 9 -150 7 -159 -2 -5 -5 -11 -22 -14 -39 -2 -16 -5 -31 -6
-32 -3 -4 -5 -11 -15 -68 -4 -27 -9 -54 -10 -60 -17 -75 -48 -227 -52 -250 -3
-16 -9 -35 -14 -41 -5 -6 -6 -13 -4 -16 3 -3 -3 -44 -13 -91 -11 -47 -18 -89
-16 -92 2 -3 0 -2 -5 2 -4 5 -48 156 -96 338 -48 181 -89 334 -91 340 -3 6
-36 11 -74 12 -57 2 -71 -1 -78 -15 -8 -16 -29 -91 -38 -137 -2 -11 -17 -67
-33 -125 -16 -58 -46 -171 -67 -252 -22 -82 -42 -148 -45 -148 -5 0 -36 130
-53 220 -9 46 -85 408 -92 434 -5 20 -13 26 -33 27 -14 0 -42 1 -61 2 -19 1
-47 1 -62 -1z"/>
<path d="M3123 10222 l-103 -3 -1 -42 c-3 -249 0 -958 5 -966 4 -6 17 -11 29
-10 12 0 37 -2 55 -4 18 -2 35 -1 37 2 2 3 27 5 57 4 93 -4 173 -5 183 -3 6 1
35 1 65 1 30 -1 62 -1 70 -1 8 0 26 0 40 0 24 0 25 3 25 55 0 48 -3 55 -20 56
-11 0 -92 1 -179 2 l-159 2 -1 173 c-1 96 2 176 7 179 4 2 68 4 142 4 110 0
135 3 136 15 3 52 1 85 -4 90 -3 4 -67 6 -142 6 -74 0 -135 3 -136 6 -6 54 -2
312 6 313 6 1 84 2 175 3 l165 1 2 58 c2 47 -1 57 -15 58 -80 2 -357 3 -439 1z"/>
<path d="M4178 10222 l-47 -3 2 -507 c2 -499 2 -507 22 -509 31 -3 111 -5 145
-3 8 0 24 0 35 0 11 -1 27 -1 35 -1 13 1 32 1 85 0 55 -1 169 14 209 27 114
38 186 120 201 233 8 53 7 479 0 526 -9 55 -49 125 -89 157 -47 38 -142 67
-239 74 -99 7 -294 10 -359 6z m373 -127 c43 -8 86 -45 96 -83 5 -15 8 -155 8
-312 0 -261 -2 -288 -19 -316 -31 -51 -72 -66 -191 -70 l-105 -3 0 393 c0 216
2 395 5 398 8 7 161 2 206 -7z"/>
<path d="M5273 10216 c-34 -7 -69 -18 -77 -25 -9 -8 -16 -10 -16 -6 0 4 -18
-8 -40 -25 -43 -34 -80 -81 -85 -108 -2 -9 -4 -17 -5 -17 -2 0 -4 -10 -15 -55
-6 -29 -7 -464 0 -528 5 -51 34 -119 66 -156 26 -31 96 -75 127 -81 11 -2 37
-8 58 -14 37 -10 248 -9 290 2 128 33 214 121 232 240 6 40 7 371 1 540 0 30
-45 120 -73 149 -29 30 -66 51 -130 75 -53 19 -251 25 -333 9z m259 -127 c36
-19 54 -41 64 -84 10 -41 11 -552 1 -592 -18 -71 -78 -103 -184 -99 -77 2
-117 18 -147 59 -20 27 -21 40 -21 330 0 321 4 349 48 376 12 8 36 18 52 22
41 11 158 3 187 -12z"/>
<path d="M6418 10218 c-13 -3 -19 -6 -15 -7 4 -1 3 -10 -3 -20 -6 -13 -7 -22
0 -26 5 -3 6 -15 1 -28 -5 -12 -5 -31 -1 -42 4 -11 4 -29 0 -40 -4 -11 -4 -29
0 -40 4 -11 4 -29 0 -40 -4 -11 -4 -29 0 -40 4 -11 4 -29 0 -40 -4 -11 -4 -29
0 -40 4 -11 4 -29 0 -40 -4 -11 -4 -29 0 -40 4 -11 4 -29 0 -40 -4 -11 -4 -29
0 -40 4 -11 4 -29 0 -40 -4 -11 -4 -29 0 -40 4 -11 4 -29 0 -40 -4 -11 -4 -29
0 -40 4 -11 4 -29 0 -40 -4 -11 -4 -29 0 -40 4 -11 4 -29 0 -40 -4 -11 -4 -29
0 -40 4 -11 5 -24 3 -28 -8 -13 -7 -110 1 -135 4 -12 12 -20 17 -16 10 6 103
9 124 4 34 -8 34 -3 33 323 0 177 3 323 7 325 3 2 30 -37 59 -85 103 -172 245
-411 265 -446 45 -81 73 -118 84 -114 7 2 19 1 28 -4 8 -4 21 -4 29 1 8 5 22
4 32 -1 14 -8 20 -6 26 10 8 24 8 999 -1 1007 -7 7 -158 6 -166 -1 -2 -3 -4
-149 -4 -325 l0 -321 -21 33 c-24 39 -22 34 -123 203 -43 71 -82 137 -88 147
-11 19 -157 261 -160 266 -5 6 -106 7 -127 0z"/>
<path d="M7525 10211 c-80 -23 -116 -43 -154 -86 -66 -75 -73 -114 -73 -410 0
-265 4 -302 41 -370 56 -105 149 -146 338 -151 177 -4 271 28 343 113 55 68
64 119 63 393 0 254 -4 304 -24 342 -7 13 -11 23 -9 23 2 0 -7 16 -20 36 -29
44 -70 73 -141 101 -74 29 -277 34 -364 9z m283 -125 c60 -31 65 -58 66 -351
1 -143 -2 -279 -6 -303 -15 -87 -67 -121 -183 -118 -93 2 -138 24 -160 79 -14
34 -16 83 -16 308 0 147 3 283 6 303 8 42 46 83 89 95 50 14 167 6 204 -13z"/>
<path d="M8215 10220 c-29 -5 -30 -7 -31 -57 -1 -42 2 -53 15 -54 9 -1 59 -2
111 -4 52 -1 100 -3 105 -4 7 0 10 -152 9 -434 -1 -237 1 -440 3 -449 3 -13
14 -17 42 -16 21 0 42 -1 47 -4 5 -3 18 -2 29 2 11 4 33 3 48 -1 21 -6 29 -4
34 7 3 8 6 214 7 457 l1 442 95 1 c152 2 138 -3 136 53 -1 27 -4 52 -7 55 -7
7 -604 13 -644 6z"/>
<path d="M1775 8920 l-80 -5 0 -505 0 -505 185 0 c153 0 193 3 231 18 92 35
151 117 166 229 8 62 7 483 -1 547 -4 24 -18 65 -32 92 -47 86 -136 125 -293
128 -47 1 -87 3 -90 4 -3 1 -42 0 -86 -3z m259 -128 c40 -11 65 -47 74 -107
14 -86 6 -544 -9 -589 -22 -63 -54 -80 -151 -80 l-83 -1 -2 385 c-1 212 0 390
2 396 4 13 121 11 169 -4z"/>
<path d="M2490 8920 l-55 -5 0 -505 0 -505 83 -3 c56 -2 82 1 77 8 -3 5 -3 10
2 10 8 0 7 964 -1 986 -6 15 -40 20 -106 14z"/>
<path d="M2925 8920 c-145 -33 -207 -149 -172 -322 9 -45 66 -109 174 -193
138 -108 201 -169 219 -212 32 -75 6 -156 -56 -174 -93 -28 -168 24 -190 133
-7 34 -16 66 -19 69 -3 4 -35 -1 -71 -10 l-65 -17 2 -48 c3 -54 39 -138 76
-177 89 -92 297 -105 402 -24 33 24 76 85 83 115 2 8 4 45 4 82 1 53 -4 77
-25 121 -27 53 -96 133 -150 172 -82 58 -206 164 -222 189 -36 55 -28 137 17
165 51 32 133 25 173 -14 24 -25 45 -81 45 -122 0 -25 18 -29 66 -14 16 5 42
12 57 16 25 5 28 9 23 33 -4 15 -8 37 -10 48 -6 29 -40 94 -63 120 -20 23 -62
46 -109 61 -35 11 -146 13 -189 3z"/>
<path d="M3590 8914 c-99 -29 -163 -119 -176 -245 -8 -83 -9 -461 0 -519 26
-184 114 -258 308 -258 132 0 217 48 253 143 18 49 31 133 30 200 l-1 50 -79
0 -79 0 -2 -80 c-3 -112 -9 -136 -43 -166 -51 -47 -170 -33 -199 23 -23 46
-28 107 -27 358 2 320 10 357 78 379 39 13 114 9 144 -7 30 -16 49 -86 48
-173 l-1 -69 50 -1 c71 -2 100 2 107 12 3 5 5 33 4 61 -5 214 -84 300 -280
304 -52 1 -109 -4 -135 -12z"/>
<path d="M4199 8920 l-56 -5 1 -505 1 -505 83 -3 82 -3 0 236 c0 129 3 236 8
236 38 6 112 2 112 -6 0 -6 12 -46 26 -90 14 -44 27 -88 29 -98 2 -10 23 -77
46 -148 l41 -129 79 0 c43 0 79 3 79 8 0 4 -13 48 -29 97 -114 352 -132 418
-112 413 18 -6 72 44 93 85 27 53 34 184 13 253 -21 72 -85 128 -168 148 -69
16 -233 24 -328 16z m297 -135 c36 -23 52 -71 50 -146 -3 -105 -47 -149 -154
-151 -90 -2 -82 -16 -82 155 0 85 3 157 8 161 12 14 151 -1 178 -19z"/>
<path d="M4944 8920 l-71 -5 0 -508 0 -508 81 3 81 3 1 503 c0 350 -3 505 -10
510 -6 4 -43 5 -82 2z"/>
<path d="M5813 8922 c-24 -2 -34 -9 -38 -25 -3 -12 -33 -132 -66 -267 -33
-135 -61 -253 -62 -262 -1 -10 -4 -18 -7 -18 -3 0 -6 -8 -7 -17 0 -10 -8 -49
-17 -88 -10 -38 -18 -78 -20 -87 -6 -44 -19 -23 -32 52 -3 14 -9 39 -14 55 -5
17 -11 41 -14 55 -2 14 -14 63 -26 110 -12 47 -24 93 -26 103 -2 10 -6 27 -9
37 -6 17 -8 29 -20 83 -3 12 -12 51 -21 86 -9 36 -17 72 -19 80 -2 9 -8 35
-14 59 l-12 42 -79 0 c-44 0 -80 -3 -81 -7 -1 -10 -5 -177 -14 -588 -4 -181
-7 -350 -8 -375 l-2 -45 68 -3 c37 -2 67 1 68 5 2 17 7 206 10 435 4 219 9
269 22 201 6 -34 8 -40 46 -184 16 -64 32 -127 35 -140 3 -13 17 -69 31 -124
34 -127 36 -135 42 -167 5 -24 9 -26 54 -26 54 -1 61 6 72 74 3 16 12 52 21
79 8 28 17 61 20 75 3 14 28 113 56 220 28 107 52 201 52 208 1 6 4 12 7 12 4
0 8 -73 9 -162 3 -197 10 -490 11 -500 1 -5 32 -8 69 -8 l68 0 -3 83 c-1 45
-5 219 -9 387 -7 354 -12 532 -13 542 -1 8 -84 14 -128 10z"/>
<path d="M6955 8920 l-60 -5 0 -317 c0 -175 -1 -318 -3 -318 -1 0 -23 44 -49
98 -25 53 -77 162 -115 242 -38 80 -86 180 -105 223 l-36 77 -59 0 -58 0 0
-510 0 -510 69 0 c63 0 69 2 72 23 2 12 4 158 3 325 0 166 2 302 5 302 5 0 42
-73 46 -90 0 -3 19 -43 42 -90 23 -47 58 -121 78 -165 21 -44 62 -131 91 -192
l53 -113 53 0 54 0 0 504 c-1 324 -5 508 -11 513 -5 5 -37 6 -70 3z"/>
<path d="M7810 8920 c-35 -5 -35 -5 -36 -57 0 -31 4 -54 10 -54 6 -1 49 -2 96
-3 l85 -1 1 -435 c1 -239 2 -443 3 -452 1 -16 12 -18 81 -18 l80 0 1 28 c0 15
1 219 1 453 l1 425 92 -1 92 -1 -1 52 c0 29 -4 55 -7 59 -8 7 -450 12 -499 5z"/>
<path d="M8460 8922 c-19 -2 -37 -7 -40 -12 -3 -4 -5 -232 -5 -507 l0 -498
225 0 225 0 1 40 c2 66 2 66 -147 68 l-134 2 0 175 0 175 113 3 112 3 0 54 c0
50 -2 55 -22 56 -13 0 -63 1 -113 2 l-90 2 -1 150 c0 83 1 155 3 161 3 7 51
10 138 10 128 -1 135 0 136 19 0 11 2 33 3 48 1 15 -1 32 -4 38 -6 9 -325 18
-400 11z"/>
<path d="M6134 8413 l1 -508 83 -3 82 -3 -2 508 -3 508 -81 3 -81 3 1 -508z"/>
<path d="M7355 8808 c-30 -127 -83 -353 -90 -383 -7 -32 -8 -37 -23 -95 -8
-30 -14 -63 -15 -72 -1 -10 -5 -18 -10 -18 -4 0 -6 -3 -3 -8 2 -4 -5 -43 -15
-87 -11 -44 -22 -91 -25 -105 -3 -14 -11 -48 -18 -77 -8 -28 -11 -54 -8 -57 3
-3 38 -6 78 -6 l73 0 8 38 c4 20 8 39 8 42 1 3 5 23 10 45 5 22 10 42 10 45 1
3 5 22 9 42 4 20 13 38 19 40 7 2 57 3 112 3 l100 -1 12 -64 c7 -36 15 -78 18
-95 15 -91 14 -90 98 -93 l77 -3 -4 33 c-3 18 -5 33 -6 33 -1 0 -3 7 -5 15 -4
20 -73 310 -91 385 -8 33 -17 71 -20 83 -3 13 -21 90 -40 170 -20 81 -38 157
-40 169 -2 13 -10 46 -18 75 l-13 53 -81 3 -80 3 -27 -113z m125 -200 c6 -35
14 -72 16 -83 3 -11 9 -42 15 -70 6 -27 12 -59 14 -70 2 -11 4 -20 5 -20 1 0
3 -12 5 -27 2 -16 6 -37 10 -48 7 -23 13 -22 -88 -24 l-79 -1 6 35 c10 61 17
93 31 155 7 33 16 76 19 95 3 19 10 53 15 74 6 22 7 44 4 49 -3 6 -2 7 4 4 6
-4 16 -35 23 -69z"/>
<path d="M1510 7149 l0 -519 3770 0 3770 0 0 519 0 519 -3770 0 -3770 0 0
-519z"/>
<path d="M2523 6395 c-96 -22 -154 -90 -170 -197 -12 -88 -8 -461 7 -513 18
-67 51 -118 94 -144 42 -27 64 -32 139 -36 71 -4 125 10 152 39 11 11 29 28
40 36 17 14 18 13 12 -3 -3 -9 -2 -28 3 -42 8 -21 15 -24 54 -23 25 0 46 6 48
12 3 9 2 391 -1 421 -1 6 -51 10 -133 10 l-132 0 -2 -47 -1 -47 66 -3 66 -3
-2 -50 c-5 -157 -42 -203 -155 -193 -41 4 -56 11 -74 33 -12 16 -25 40 -27 54
-10 49 -6 500 4 530 17 48 64 77 119 72 8 -1 24 -1 34 -2 52 -1 82 -45 85
-129 1 -30 3 -55 4 -56 4 -4 45 -6 94 -5 l51 1 -5 66 c-9 118 -58 191 -146
215 -60 16 -164 18 -224 4z"/>
<path d="M5519 6400 c-93 -17 -148 -67 -176 -158 -14 -47 -17 -100 -17 -292 0
-267 9 -314 70 -376 48 -47 96 -65 189 -69 188 -7 274 72 278 257 l2 83 -71 2
-71 2 -3 -52 c-1 -29 -1 -62 -1 -75 1 -39 -26 -91 -54 -102 -39 -15 -108 -12
-133 6 -24 17 -41 44 -48 77 -10 50 -4 489 7 526 14 49 51 71 117 71 88 0 111
-36 116 -179 l1 -46 70 0 70 0 -1 70 c-1 39 -6 89 -13 112 -19 68 -77 124
-144 139 -37 9 -150 11 -188 4z"/>
<path d="M7160 6397 c-102 -21 -161 -105 -156 -219 5 -99 24 -123 206 -259
142 -107 165 -136 169 -206 1 -42 -2 -52 -26 -74 -45 -41 -126 -38 -171 7 -16
17 -42 90 -42 120 0 22 -10 29 -35 24 -5 -1 -19 -4 -30 -6 -80 -15 -78 -13
-72 -53 17 -106 63 -172 143 -206 60 -26 197 -25 254 2 81 39 122 103 122 194
0 96 -48 171 -168 260 -33 24 -65 50 -72 57 -8 6 -33 25 -57 42 -84 58 -111
147 -59 195 66 61 184 19 199 -73 11 -64 8 -62 76 -46 35 8 64 16 65 17 2 1
-2 25 -8 52 -18 83 -71 147 -142 167 -53 15 -139 17 -196 5z"/>
<path d="M1895 6333 c-9 -38 -18 -75 -20 -83 -2 -8 -17 -71 -35 -140 -17 -69
-33 -134 -35 -145 -3 -11 -27 -111 -55 -223 -27 -112 -50 -209 -50 -217 0 -11
16 -13 69 -12 l70 1 16 71 c8 38 18 87 22 107 l6 38 71 1 c67 1 129 -1 133 -4
0 -1 9 -38 18 -82 9 -44 18 -87 20 -95 2 -8 4 -20 4 -26 1 -7 28 -10 74 -10
66 1 72 3 69 21 -2 11 -26 110 -54 220 -27 110 -51 207 -53 215 -2 8 -20 80
-40 160 -20 80 -39 155 -41 167 -2 12 -8 33 -13 45 -9 25 -11 32 -11 48 0 6
-31 10 -74 10 l-74 0 -17 -67z m100 -180 c-1 -10 0 -22 4 -28 3 -5 6 -12 6
-15 1 -6 14 -68 20 -95 2 -11 10 -50 18 -87 8 -37 18 -71 21 -77 9 -13 -18
-19 -91 -20 l-63 -1 6 37 c8 47 12 68 14 68 2 0 6 18 13 60 5 27 17 85 32 153
6 26 25 30 20 5z"/>
<path d="M3039 6373 c0 -49 -1 -817 0 -839 1 -21 5 -21 205 -21 l204 0 0 49 1
48 -129 0 -128 0 1 153 2 152 100 5 100 5 1 48 0 48 -80 -2 c-142 -2 -126 -20
-126 140 l0 139 108 0 c59 0 116 1 127 1 17 1 20 8 20 51 l1 50 -203 0 -203 0
-1 -27z"/>
<path d="M4078 6389 c-2 -8 -4 -207 -4 -444 l1 -430 75 0 75 0 3 203 c2 151 6
202 15 203 36 3 80 -1 87 -8 3 -4 28 -75 54 -158 27 -82 55 -171 64 -197 l16
-47 73 2 c40 0 73 2 73 4 0 4 -81 247 -87 263 -4 8 -8 20 -8 25 -1 6 -5 17 -8
25 -9 20 -37 113 -37 123 0 4 6 7 14 7 27 0 83 68 95 114 26 104 7 200 -50
256 -54 52 -93 61 -280 67 -135 4 -167 3 -171 -8z m309 -103 c48 -15 72 -141
39 -204 -19 -37 -74 -60 -144 -60 l-52 -1 0 139 c0 95 4 140 11 142 14 5 116
-7 146 -16z"/>
<path d="M4885 6379 c-4 -11 -4 -23 -1 -26 3 -4 2 -11 -3 -17 -6 -7 -12 -23
-14 -36 -3 -14 -19 -81 -37 -150 -17 -69 -33 -132 -35 -140 -2 -8 -13 -53 -25
-100 -12 -47 -23 -92 -25 -100 -2 -8 -17 -71 -34 -140 -17 -69 -33 -132 -35
-141 -3 -15 6 -17 66 -16 81 1 78 -4 105 133 l16 84 46 1 c84 2 153 0 157 -3
1 -2 6 -19 9 -38 3 -19 13 -68 22 -107 l17 -72 70 2 c57 2 70 5 67 17 -2 8 -4
20 -5 25 -2 6 -6 24 -10 40 -5 17 -26 104 -48 195 -22 91 -42 172 -45 180 -3
8 -7 24 -8 35 -1 11 -7 36 -13 55 -6 19 -13 46 -16 60 -3 14 -19 82 -36 153
l-32 127 -73 0 c-66 0 -74 -2 -80 -21z m108 -319 c55 -245 58 -224 -31 -228
l-73 -3 5 28 c9 52 17 88 21 103 2 8 7 29 10 45 2 17 7 40 10 53 3 12 7 32 10
45 2 12 7 35 11 50 3 16 7 27 9 25 1 -2 14 -55 28 -118z"/>
<path d="M5996 6392 c-3 -5 -5 -204 -5 -444 l1 -436 203 0 c201 0 204 0 207
22 2 11 2 33 -1 48 l-3 27 -126 3 -127 3 0 150 0 150 103 3 102 3 0 50 0 50
-94 -2 c-51 -1 -98 1 -102 4 -5 3 -9 65 -9 139 l0 133 116 1 c64 1 121 4 126
7 6 4 10 26 9 49 l-1 43 -197 3 c-108 1 -199 -1 -202 -6z"/>
<path d="M7627 6393 c-2 -5 -3 -204 -3 -443 l1 -435 204 0 204 0 0 38 c-1 20
-2 41 -2 47 -1 5 -55 11 -128 12 l-127 3 0 143 c-1 79 2 148 5 154 3 5 49 9
101 9 l96 0 3 27 c10 70 7 72 -96 71 -52 0 -98 1 -102 4 -6 4 -9 207 -4 264 1
8 37 11 124 10 l122 -1 3 52 3 52 -200 0 c-110 0 -202 -3 -204 -7z"/>
<path d="M8080 6394 c0 -3 47 -99 103 -213 l104 -206 -51 -107 c-64 -134 -78
-166 -76 -174 1 -4 -2 -10 -7 -13 -10 -7 -73 -143 -73 -158 0 -7 25 -10 66 -9
71 1 73 2 108 86 28 67 71 165 87 198 l16 34 79 -159 80 -158 73 -2 c39 -2 70
0 68 5 -54 106 -217 443 -217 449 0 6 95 202 197 406 l14 27 -76 0 c-46 0 -75
-4 -75 -11 0 -5 -13 -38 -29 -72 -16 -34 -35 -77 -42 -94 -8 -18 -17 -33 -21
-33 -5 0 -8 -7 -8 -15 0 -18 -21 -65 -30 -65 -3 0 -39 65 -79 145 l-73 145
-69 0 c-38 0 -69 -3 -69 -6z"/>
<path d="M3526 5641 c-1 -3 -2 -33 -2 -66 1 -63 0 -61 53 -64 17 -1 21 -5 16
-18 -7 -21 -50 -63 -63 -63 -12 0 -1 -37 15 -50 20 -17 91 27 110 67 9 18 16
60 16 95 2 113 8 104 -71 105 -39 0 -72 -3 -74 -6z"/>
<path d="M6483 5637 c-11 -18 -10 -112 1 -119 6 -4 23 -8 39 -8 15 0 27 -4 27
-9 0 -16 -51 -71 -61 -65 -14 8 -11 -30 4 -51 13 -17 16 -17 57 6 58 32 76 74
75 175 l0 79 -68 1 c-37 1 -71 -4 -74 -9z"/>
<path d="M8716 5640 c-1 -3 -2 -32 -1 -65 l0 -60 33 -1 c18 -1 34 -3 37 -5 9
-9 -21 -54 -43 -64 -18 -8 -22 -15 -17 -35 4 -14 10 -29 15 -34 15 -15 96 40
111 76 12 30 21 159 12 185 -5 11 -142 15 -147 3z"/>
<path d="M3232 5180 c-40 -9 -89 -53 -107 -96 -23 -55 -28 -114 -29 -324 -2
-304 13 -383 83 -443 30 -25 89 -41 126 -33 11 3 25 5 32 5 7 1 28 18 49 39
20 20 35 30 34 22 -7 -48 -1 -57 38 -56 l37 1 0 220 0 220 -95 0 -95 0 0 -45
0 -45 45 -5 45 -5 -2 -74 c-3 -88 -17 -136 -46 -156 -48 -34 -119 -4 -131 56
-7 34 -8 512 -2 544 3 11 5 23 5 26 1 3 10 15 22 28 16 17 30 21 64 20 56 -3
76 -34 78 -123 l2 -64 43 -4 c24 -2 48 0 54 3 6 4 8 36 5 84 -6 96 -37 160
-87 186 -42 22 -121 31 -168 19z"/>
<path d="M3934 5177 c-32 -12 -96 -60 -95 -71 0 -3 -6 -21 -14 -40 -20 -47
-25 -109 -25 -316 0 -240 5 -299 32 -361 33 -75 96 -108 196 -104 71 3 124 43
154 115 22 53 23 67 23 325 0 149 -3 284 -7 302 -10 49 -46 106 -83 131 -39
27 -132 37 -181 19z m131 -122 c14 -13 26 -37 26 -52 6 -126 4 -497 -3 -533
-9 -53 -37 -80 -82 -80 -41 1 -72 27 -83 70 -9 34 -9 525 -1 564 13 55 100 74
143 31z"/>
<path d="M5955 5182 c-44 -16 -84 -43 -90 -62 -3 -11 -11 -20 -17 -20 -6 0 -9
-3 -5 -6 3 -3 1 -18 -4 -32 -6 -14 -10 -51 -10 -82 0 -119 9 -135 173 -310 74
-78 97 -125 93 -193 -2 -38 -8 -55 -25 -69 -64 -52 -133 11 -143 132 -1 19 -6
34 -10 33 -4 -1 -22 -5 -40 -8 -50 -11 -55 -19 -46 -72 23 -137 78 -201 177
-208 167 -11 251 183 158 363 -26 50 -40 67 -143 176 -75 80 -101 129 -95 179
6 51 35 79 79 75 44 -4 73 -38 79 -94 8 -65 8 -65 60 -47 l46 16 -4 41 c-8 64
-44 138 -81 163 -34 23 -118 37 -152 25z"/>
<path d="M1697 5173 c-2 -5 -3 -204 -3 -443 l1 -435 55 0 55 0 2 180 c0 99 2
191 2 205 1 24 4 26 36 22 19 -2 35 -7 36 -11 0 -3 2 -13 4 -21 2 -8 7 -28 10
-43 3 -16 20 -88 37 -160 17 -73 33 -142 36 -155 4 -21 9 -23 58 -21 49 2 53
4 50 23 -3 12 -21 91 -41 176 -20 85 -39 163 -41 173 -2 10 -6 27 -9 38 -5 13
3 30 23 53 42 48 56 98 56 196 -1 122 -36 185 -121 216 -40 14 -239 20 -246 7z
m159 -95 c3 -4 12 -4 19 -2 18 7 52 -12 66 -38 18 -33 19 -138 2 -180 -16 -39
-27 -46 -85 -54 -29 -4 -38 -2 -45 13 -6 13 -9 224 -4 264 1 7 39 5 47 -3z"/>
<path d="M2164 4738 l1 -443 144 0 145 0 3 48 3 47 -90 0 c-50 0 -91 3 -91 8
-5 30 -3 294 2 298 4 2 36 4 73 5 l66 2 0 47 0 48 -66 0 c-36 0 -68 3 -72 7
-4 4 -7 66 -7 139 l0 133 82 1 c44 0 85 2 90 5 5 3 9 25 9 49 l-1 43 -146 3
-146 3 1 -443z"/>
<path d="M2530 5135 c-1 -25 -1 -209 -1 -410 0 -201 0 -381 1 -400 l0 -35 147
2 147 3 3 48 2 47 -93 0 -94 0 -1 348 c0 191 0 368 0 395 l-1 47 -55 0 -55 0
0 -45z"/>
<path d="M2890 4736 l0 -444 55 -1 55 0 1 42 c0 52 0 793 0 825 -1 20 -6 22
-56 22 l-55 0 0 -444z"/>
<path d="M3599 5173 c-3 -25 -4 -860 -1 -871 5 -15 101 -14 104 2 0 6 2 206 3
444 l1 432 -53 0 c-29 0 -53 -3 -54 -7z"/>
<path d="M4300 4734 l0 -445 48 3 47 3 0 272 c0 150 3 273 6 273 5 0 16 -30
34 -90 1 -3 4 -12 8 -20 3 -8 39 -109 79 -225 l74 -210 37 -3 37 -3 0 445 0
446 -48 0 -47 0 0 -265 c0 -146 -2 -265 -5 -265 -3 0 -27 62 -53 138 -27 75
-69 194 -94 265 l-46 127 -38 0 -39 0 0 -446z"/>
<path d="M5150 5116 c-1 -36 -1 -230 -1 -431 0 -201 0 -372 1 -379 0 -12 21
-15 118 -13 137 3 176 17 217 79 40 60 51 145 49 383 -1 222 -5 266 -28 318
-38 83 -77 100 -233 105 l-123 4 0 -66z m240 -66 c11 -12 21 -34 22 -47 1 -12
3 -35 4 -50 3 -40 6 -236 4 -248 -1 -5 -1 -14 0 -20 3 -12 0 -148 -4 -190 -7
-75 -40 -105 -115 -105 l-40 0 1 345 0 344 54 -2 c41 -2 58 -8 74 -27z"/>
<path d="M5630 5145 c0 -19 -1 -163 -1 -320 0 -157 1 -341 1 -409 l0 -124 53
2 52 1 2 443 2 442 -54 0 -55 0 0 -35z"/>
<path d="M6386 5163 c-5 -17 -19 -94 -31 -173 -3 -19 -8 -48 -12 -65 -3 -16
-7 -39 -9 -50 -10 -66 -14 -88 -28 -165 -9 -47 -18 -99 -21 -115 -5 -35 -12
-72 -25 -135 -5 -25 -12 -68 -15 -95 -4 -28 -8 -54 -9 -60 0 -5 23 -11 52 -11
41 -1 52 2 53 15 0 9 2 25 5 36 4 22 11 67 19 122 3 20 7 38 8 39 3 3 68 6
108 5 35 -1 36 -2 37 -42 1 -22 4 -44 6 -47 2 -4 7 -32 11 -62 4 -30 9 -58 11
-62 3 -4 28 -7 55 -6 l50 1 -5 36 c-3 20 -8 52 -11 71 -3 19 -11 60 -17 90 -7
30 -13 66 -14 80 -1 14 -5 36 -8 50 -3 14 -13 63 -21 110 -8 47 -17 96 -20
110 -10 58 -37 209 -46 264 -6 33 -12 63 -15 68 -3 4 -27 8 -54 8 -38 0 -50
-4 -54 -17z m79 -353 c4 -36 9 -68 11 -71 2 -4 6 -31 10 -60 3 -30 8 -57 11
-61 2 -5 -21 -8 -52 -8 l-57 0 6 38 c6 45 16 109 21 141 2 13 7 43 10 65 6 37
10 63 15 91 3 15 18 -62 25 -135z"/>
<path d="M6717 5173 c-2 -4 -4 -204 -3 -443 l1 -435 130 0 c120 0 133 2 169
24 111 69 126 338 25 424 -33 27 -33 27 -12 42 54 38 77 177 44 273 -33 96
-78 119 -238 121 -61 1 -113 -2 -116 -6z m216 -102 c33 -2 56 -58 53 -131 -5
-100 -31 -127 -120 -126 l-39 1 0 95 c1 52 1 112 2 132 l1 37 43 -3 c23 -2 50
-4 60 -5z m1 -373 c45 -20 60 -55 62 -143 1 -44 -1 -84 -4 -90 -4 -5 -7 -17
-9 -25 -4 -27 -44 -47 -99 -49 -32 -1 -54 2 -55 8 0 6 -1 67 -1 136 0 193 -4
175 42 175 21 0 50 -5 64 -12z"/>
<path d="M7192 4735 l0 -446 54 2 c30 1 54 7 55 13 1 14 1 836 0 859 -1 14
-11 17 -55 17 l-55 0 1 -445z"/>
<path d="M7410 4736 l0 -445 148 2 147 2 3 48 3 47 -94 0 -94 0 -1 373 c0 204
-1 382 -1 395 -1 20 -6 22 -56 22 l-55 0 0 -444z"/>
<path d="M7777 5173 c-2 -4 -4 -204 -3 -443 l1 -435 55 0 54 0 0 440 0 440
-51 3 c-28 2 -53 -1 -56 -5z"/>
<path d="M7949 5158 c0 -13 -2 -30 -4 -39 -6 -31 12 -42 67 -43 l53 -1 3 -392
2 -393 55 1 55 2 1 41 c0 22 1 199 1 392 l1 352 53 0 c64 0 70 3 68 39 -1 15
-3 36 -3 46 -1 15 -16 17 -176 17 -175 0 -175 0 -176 -22z"/>
<path d="M8337 5098 c14 -46 33 -114 43 -153 10 -38 26 -95 34 -125 9 -30 18
-63 21 -74 2 -10 12 -44 21 -75 12 -41 17 -98 18 -216 l1 -160 53 -3 52 -3 0
43 c1 137 8 306 13 323 9 27 94 334 116 415 10 36 21 75 25 88 7 21 5 22 -47
22 l-54 0 -48 -187 c-26 -104 -51 -193 -54 -200 -5 -9 -58 173 -85 292 -2 6
-8 29 -15 53 l-12 42 -53 0 -54 0 25 -82z"/>
<path d="M4759 4421 c-8 -34 -3 -131 5 -128 6 3 19 0 29 -5 14 -7 15 -13 6
-31 -7 -12 -20 -30 -30 -40 -15 -14 -16 -22 -7 -41 9 -21 14 -23 34 -14 43 20
65 73 68 164 2 46 0 87 -3 91 -7 10 -100 14 -102 4z"/>
<path d="M8756 4420 c-1 -3 -2 -32 -2 -65 1 -57 2 -60 28 -63 25 -3 26 -5 17
-32 -6 -15 -19 -36 -29 -45 -16 -14 -17 -21 -7 -39 7 -11 13 -22 14 -24 4 -10
47 28 65 57 16 26 22 52 23 115 1 44 0 87 -3 93 -4 12 -101 15 -106 3z"/>
<path d="M2374 3943 c-61 -56 -69 -115 -69 -513 0 -306 1 -317 24 -389 26 -77
58 -111 109 -111 53 0 105 52 115 116 1 11 5 24 8 29 3 6 6 65 8 132 l3 123
-33 -4 c-19 -2 -36 -4 -39 -5 -3 -1 -6 -40 -6 -89 -2 -104 -8 -148 -24 -168
-24 -28 -65 -8 -77 38 -9 34 -11 620 -3 675 11 69 55 95 85 49 11 -16 16 -54
19 -126 3 -109 9 -121 52 -112 l25 5 -2 106 c-4 149 -33 239 -84 258 -40 15
-86 9 -111 -14z"/>
<path d="M2722 3963 c-47 -9 -84 -86 -97 -203 -8 -70 -9 -575 -1 -616 3 -17 8
-47 10 -67 6 -40 37 -107 60 -126 29 -24 88 -25 117 -2 53 42 71 111 73 281 1
95 1 95 -24 96 -47 3 -50 -3 -50 -100 0 -50 -5 -108 -10 -128 -13 -47 -44 -59
-74 -29 -20 21 -21 30 -24 349 -1 180 0 344 4 365 10 63 72 86 91 34 11 -30
11 -31 12 -135 l1 -93 38 3 37 3 -1 95 c-2 217 -48 295 -162 273z"/>
<path d="M4750 3952 c-42 -20 -75 -93 -85 -187 -7 -68 -7 -544 0 -620 11 -111
38 -176 85 -200 97 -50 172 34 185 206 8 99 8 558 0 614 -15 115 -38 166 -86
191 -36 18 -56 18 -99 -4z m87 -129 c16 -25 18 -59 18 -373 0 -311 -2 -349
-17 -372 -22 -33 -55 -33 -77 1 -14 22 -16 70 -19 351 -2 330 2 384 35 408 26
18 41 15 60 -15z"/>
<path d="M6793 3959 c-40 -15 -70 -75 -88 -179 -11 -58 -6 -685 5 -685 1 0 3
-12 5 -26 4 -33 38 -101 59 -118 8 -7 33 -15 56 -18 36 -5 43 -2 74 30 43 46
59 118 60 276 l1 84 -32 3 c-18 1 -35 -1 -37 -5 -3 -4 -6 -52 -7 -106 -2 -112
-12 -151 -41 -160 -31 -10 -55 20 -63 78 -9 63 -9 595 0 647 12 74 72 91 94
28 6 -17 11 -73 11 -125 l0 -94 38 3 37 3 -1 90 c-1 122 -23 235 -46 235 -4 0
-8 6 -8 14 0 8 -15 19 -32 24 -38 12 -56 12 -85 1z"/>
<path d="M7111 3959 c-44 -17 -77 -78 -87 -163 -10 -72 -9 -642 0 -695 10 -57
35 -120 57 -142 21 -21 78 -34 109 -24 23 7 63 65 73 105 11 45 18 114 19 185
1 107 2 103 -37 102 -19 -1 -35 -6 -36 -12 0 -5 -2 -53 -3 -106 -2 -55 -9
-108 -17 -125 -25 -51 -67 -41 -84 21 -11 41 -14 607 -3 670 14 74 53 97 85
49 12 -20 17 -51 18 -123 1 -54 5 -102 8 -108 10 -16 67 -3 68 16 3 41 1 102
-5 170 -12 145 -77 216 -165 180z"/>
<path d="M8099 3962 c-22 -3 -28 -9 -31 -35 -2 -18 -1 -43 2 -57 4 -22 10 -26
40 -26 l35 1 3 -453 2 -452 40 0 40 0 2 452 3 453 35 -1 c40 0 48 14 42 77
l-4 38 -91 3 c-51 2 -104 2 -118 0z"/>
<path d="M1699 3953 c-1 -5 -1 -10 -1 -13 1 -19 14 -151 17 -175 2 -16 7 -59
10 -95 3 -36 8 -76 10 -90 5 -32 14 -112 20 -175 3 -27 7 -68 10 -90 2 -22 7
-65 10 -95 3 -30 8 -68 10 -85 3 -16 7 -55 10 -85 3 -30 7 -64 9 -75 3 -11 5
-24 5 -28 1 -4 17 -7 36 -5 31 2 35 5 36 30 1 15 2 31 3 36 1 4 6 45 10 92 5
47 10 93 11 103 2 10 6 46 9 80 4 34 8 76 10 92 2 17 7 62 11 100 3 39 8 84
10 100 3 17 7 57 11 90 3 33 7 71 8 85 12 102 20 177 20 190 1 17 -51 27 -64
13 -4 -4 -11 -39 -15 -78 -3 -38 -8 -81 -10 -95 -2 -14 -6 -59 -10 -100 -3
-42 -7 -85 -9 -97 -3 -12 -7 -56 -11 -100 -3 -43 -8 -87 -10 -98 -2 -11 -4
-30 -4 -42 -1 -38 -16 -26 -18 15 -2 20 -6 57 -9 82 -3 25 -7 70 -9 100 -3 30
-7 78 -11 105 -7 62 -11 94 -19 170 -3 33 -8 69 -10 80 -2 11 -4 30 -4 43 -1
18 -7 22 -36 22 -19 0 -36 -3 -36 -7z"/>
<path d="M2089 3938 c-1 -13 -3 -32 -4 -43 -2 -11 -6 -51 -10 -90 -3 -38 -8
-81 -10 -95 -2 -14 -7 -56 -11 -95 -4 -38 -8 -81 -10 -95 -1 -14 -5 -56 -9
-95 -6 -66 -8 -91 -20 -190 -10 -86 -15 -133 -21 -212 l-6 -83 30 0 c35 0 46
12 48 55 1 17 4 59 8 95 4 36 8 74 9 85 2 17 9 20 46 20 50 0 46 8 56 -114 3
-42 8 -86 10 -97 2 -10 4 -25 4 -31 1 -8 15 -13 37 -13 l36 0 -6 78 c-3 42 -8
88 -10 102 -3 14 -7 54 -10 90 -3 36 -7 81 -10 100 -3 19 -8 62 -11 95 -3 33
-7 74 -9 90 -2 17 -7 59 -11 95 -3 36 -8 83 -10 105 -2 22 -7 67 -10 100 -3
33 -8 69 -10 80 -2 11 -4 35 -4 53 -1 31 -3 32 -41 32 -34 0 -40 -3 -41 -22z
m46 -277 c3 -5 2 -12 -3 -15 -5 -3 -9 1 -9 9 0 17 3 19 12 6z m4 -53 c0 -13 2
-45 5 -73 2 -27 7 -83 10 -123 3 -41 8 -78 11 -82 8 -13 -27 -28 -50 -21 -11
3 -20 11 -20 16 1 6 5 46 9 90 7 67 14 142 18 203 2 22 18 13 17 -10z"/>
<path d="M2949 3943 c-3 -58 -4 -971 0 -986 3 -14 12 -17 40 -15 l36 3 0 508
0 507 -37 0 c-29 0 -38 -4 -39 -17z"/>
<path d="M3098 3948 c-2 -7 -4 -236 -4 -508 l1 -495 33 -3 c17 -2 33 0 33 5 1
4 2 139 3 300 0 160 4 295 9 299 4 4 7 -4 8 -17 0 -13 2 -33 4 -44 4 -20 16
-82 20 -100 2 -5 17 -80 35 -165 17 -85 35 -171 40 -190 4 -19 11 -47 14 -62
5 -21 12 -28 31 -28 l25 0 0 511 0 510 -32 -3 -33 -3 0 -288 c0 -158 -2 -287
-5 -287 -3 0 -16 46 -27 103 -78 370 -94 444 -99 460 -6 20 -50 24 -56 5z"/>
<path d="M3496 3933 c-3 -16 -8 -55 -11 -88 -3 -33 -8 -82 -10 -110 -3 -27 -8
-70 -10 -95 -3 -25 -8 -67 -10 -95 -7 -66 -16 -154 -19 -185 -2 -14 -7 -59
-11 -100 -4 -41 -9 -86 -10 -100 -26 -243 -27 -220 11 -220 18 0 35 3 38 8 4
7 10 57 22 177 6 64 13 74 53 71 35 -2 50 -13 49 -34 -1 -19 11 -166 16 -197
2 -15 12 -20 40 -22 l37 -2 -6 62 c-5 59 -8 88 -20 187 -3 25 -7 68 -9 95 -2
28 -7 68 -10 90 -10 76 -19 170 -20 207 -1 21 -3 38 -6 38 -3 0 -5 19 -6 43
-1 23 -4 65 -7 92 -4 28 -9 77 -12 110 -9 90 -12 95 -50 95 -28 0 -34 -4 -39
-27z m49 -338 c4 -39 9 -86 11 -105 18 -179 16 -191 -31 -183 -25 5 -25 2 -9
158 8 80 11 125 13 174 2 53 9 33 16 -44z"/>
<path d="M3671 3902 l-1 -58 42 0 43 0 0 -449 1 -450 37 -3 c28 -2 37 1 38 12
1 9 3 210 4 446 1 237 3 434 4 438 0 5 18 8 39 8 l37 -1 1 57 1 56 -122 1
-122 2 -2 -59z"/>
<path d="M3958 3953 c-3 -4 -4 -233 -4 -508 l1 -500 103 -2 c60 -2 101 1 97 6
-3 5 -1 12 4 16 6 3 7 13 4 21 -3 9 -6 28 -7 42 -1 24 -4 25 -61 26 l-60 1 0
178 -1 177 48 0 c27 0 49 5 49 10 10 78 -4 115 -39 103 -7 -3 -23 -2 -35 1
-22 5 -23 8 -21 158 1 84 2 156 3 159 0 3 27 5 59 5 l57 -1 0 55 0 55 -97 3
c-53 1 -98 -1 -100 -5z"/>
<path d="M4206 3463 c1 -274 2 -504 3 -511 1 -10 20 -12 74 -11 103 4 131 23
163 114 15 43 18 95 21 375 4 483 -13 530 -194 530 l-68 0 1 -497z m159 356
c19 -19 20 -33 20 -357 0 -396 -3 -410 -75 -408 l-25 1 -1 390 c0 215 1 393 3
397 6 12 58 -3 78 -23z"/>
<path d="M4999 3947 c0 -15 0 -966 0 -990 1 -15 8 -18 39 -15 l37 3 2 229 c1
178 4 231 15 237 22 14 36 -12 42 -81 4 -36 9 -74 11 -85 2 -11 6 -38 9 -60
10 -76 26 -190 32 -217 5 -24 11 -28 40 -28 33 0 41 11 34 45 -1 6 -4 24 -6
40 -2 17 -6 46 -9 65 -3 19 -8 55 -11 80 -2 25 -6 52 -9 60 -2 8 -7 40 -10 70
-8 74 -16 123 -21 132 -3 4 5 21 18 38 47 64 58 287 18 393 -28 75 -54 91
-152 94 -56 2 -78 -1 -79 -10z m137 -107 c21 0 37 -61 39 -144 2 -85 -6 -131
-28 -153 -17 -17 -55 -24 -63 -12 -3 5 -6 69 -6 142 0 194 -1 180 25 173 12
-3 27 -6 33 -6z"/>
<path d="M5457 3953 c-2 -5 -3 -195 -2 -423 2 -432 5 -478 46 -546 24 -39 67
-58 112 -50 39 7 60 27 81 76 26 63 28 102 32 527 l3 422 -38 -1 -38 0 -1
-377 c-1 -406 -4 -472 -27 -504 -21 -29 -52 -32 -67 -4 -25 46 -27 76 -27 505
l-1 382 -34 0 c-19 0 -37 -3 -39 -7z"/>
<path d="M5790 3450 l0 -510 29 0 c17 0 32 4 35 9 3 5 6 139 6 298 1 261 7
320 24 228 11 -61 16 -91 22 -115 3 -14 8 -36 11 -50 2 -14 14 -68 25 -120 12
-52 22 -102 23 -110 1 -8 8 -43 15 -77 12 -58 14 -61 39 -60 l26 2 0 505 0
505 -32 3 -33 3 -1 -253 c-1 -139 -1 -268 -1 -285 1 -63 -14 -32 -32 70 -11
56 -21 107 -22 112 -5 16 -34 148 -39 174 -2 14 -10 50 -16 80 -15 75 -17 85
-18 94 -1 4 -14 7 -31 7 l-30 0 0 -510z"/>
<path d="M6095 3950 c-3 -6 -4 -25 -1 -43 3 -17 8 -59 11 -92 4 -33 8 -76 11
-95 2 -19 6 -60 9 -90 3 -30 8 -68 10 -85 5 -43 17 -145 20 -180 4 -41 15
-143 20 -180 7 -58 22 -194 24 -223 1 -14 10 -19 36 -20 19 -1 35 2 36 6 0 4
2 16 4 27 2 11 7 52 10 90 4 39 8 81 10 95 2 14 7 54 10 90 4 36 8 72 10 81 2
8 6 53 10 100 3 46 8 91 10 99 4 15 8 48 20 175 4 33 8 74 10 90 2 17 6 60 10
98 l7 67 -36 0 c-21 0 -37 -5 -37 -12 -1 -7 -3 -22 -4 -33 -2 -11 -6 -53 -10
-94 -3 -41 -8 -88 -11 -105 -2 -17 -7 -62 -10 -101 -2 -38 -7 -81 -9 -95 -3
-14 -7 -56 -11 -95 -3 -38 -7 -80 -9 -93 -4 -41 -15 -36 -17 9 0 24 -2 55 -4
69 -10 86 -20 182 -29 280 -3 36 -7 74 -10 85 -2 11 -7 54 -11 95 -3 41 -8 78
-11 83 -6 11 -61 9 -68 -3z"/>
<path d="M6489 3958 c-4 -14 -9 -53 -14 -103 -3 -33 -7 -76 -9 -95 -2 -19 -7
-64 -11 -100 -4 -36 -9 -78 -11 -95 -2 -16 -6 -55 -9 -85 -3 -30 -7 -74 -10
-98 -2 -23 -7 -66 -9 -95 -3 -28 -8 -72 -11 -97 -4 -44 -10 -100 -20 -200 l-5
-50 34 0 c19 0 37 3 40 8 2 4 8 48 12 97 4 50 8 99 10 110 1 11 3 25 3 30 1 6
21 11 46 11 38 0 45 -3 46 -21 0 -11 2 -28 4 -37 2 -9 6 -54 10 -100 4 -46 9
-86 12 -91 2 -4 20 -6 38 -5 32 2 34 4 31 33 -3 16 -8 66 -11 110 -4 44 -9 94
-11 110 -2 17 -6 50 -9 75 -2 25 -6 65 -9 90 -3 25 -8 72 -11 105 -3 33 -8 76
-11 95 -2 19 -6 60 -9 90 -12 125 -28 268 -34 303 -1 6 -70 11 -72 5z m38
-310 c-3 -8 -6 -5 -6 6 -1 11 2 17 5 13 3 -3 4 -12 1 -19z m7 -68 c7 -51 15
-141 21 -217 l4 -53 -36 0 -35 0 6 58 c7 65 17 170 21 222 4 45 4 44 9 39 3
-3 7 -25 10 -49z"/>
<path d="M7344 3453 l1 -508 38 -3 37 -3 0 83 c1 105 1 792 0 876 l0 62 -39 0
-38 0 1 -507z"/>
<path d="M7497 3953 c-4 -3 -7 -233 -7 -510 l0 -504 33 3 32 3 3 293 c1 183 6
292 12 292 6 0 9 -3 8 -7 -2 -7 11 -88 18 -118 1 -5 14 -66 29 -135 14 -69 29
-134 31 -145 3 -11 7 -36 10 -57 2 -20 8 -48 14 -62 5 -14 7 -26 4 -26 -2 0 0
-9 6 -21 7 -13 19 -19 33 -17 l22 3 0 505 0 505 -34 0 -34 0 1 -282 c0 -156
-4 -283 -8 -283 -5 0 -8 8 -8 18 0 9 -9 60 -21 112 -12 52 -24 106 -27 120 -3
14 -18 88 -34 165 -17 77 -30 144 -30 148 0 9 -44 9 -53 0z"/>
<path d="M7896 3952 c-4 -8 -7 -29 -21 -167 -3 -27 -7 -66 -10 -85 -4 -30 -10
-92 -20 -205 -4 -49 -19 -182 -30 -275 -3 -25 -7 -65 -9 -90 -2 -25 -7 -78
-11 -117 l-8 -73 37 0 c22 0 36 5 37 13 0 6 2 21 4 32 2 11 7 52 10 90 4 39 8
79 10 90 2 11 4 23 4 26 1 7 77 6 84 -1 3 -3 9 -37 12 -75 4 -39 8 -86 10
-105 2 -19 4 -43 4 -52 1 -14 10 -18 36 -18 42 0 42 -2 30 115 -4 39 -9 84
-10 100 -3 30 -11 103 -20 185 -3 25 -8 70 -11 100 -3 30 -7 69 -9 85 -2 17
-6 59 -9 95 -3 36 -8 81 -10 100 -3 19 -8 62 -11 95 -4 33 -8 69 -10 80 -1 11
-3 30 -4 43 -1 18 -7 22 -35 22 -19 0 -37 -4 -40 -8z m43 -329 c1 -27 4 -59 5
-73 5 -33 18 -188 20 -219 1 -20 -4 -24 -32 -25 l-33 -1 5 75 c4 41 9 101 12
134 4 32 8 77 9 100 4 53 4 56 8 56 2 0 5 -21 6 -47z"/>
<path d="M8350 3450 l0 -510 100 0 c73 0 100 3 101 13 1 6 2 31 3 55 l1 42
-62 0 -63 0 0 180 0 180 50 0 50 0 0 55 c0 59 2 58 -68 57 l-32 0 2 161 3 162
58 -1 c45 -1 57 2 58 15 2 19 2 71 0 89 -1 9 -28 12 -101 12 l-100 0 0 -510z"/>
<path d="M8596 3950 c7 -7 9 -26 5 -48 -4 -20 -6 -46 -5 -57 4 -34 5 -67 5
-137 0 -77 0 -74 0 -183 0 -44 0 -87 -1 -95 0 -8 0 -80 1 -160 0 -160 0 -150
-4 -203 -1 -21 0 -43 4 -49 4 -6 4 -21 0 -32 -15 -39 -3 -46 70 -46 109 0 144
26 172 131 19 68 17 35 20 364 3 361 -5 425 -65 490 -26 29 -32 30 -120 33
-70 3 -90 1 -82 -8z m141 -113 c43 -15 46 -42 46 -397 0 -258 -2 -311 -16
-342 -18 -42 -57 -60 -79 -37 -11 12 -15 62 -8 94 1 6 2 12 1 15 -6 14 -6 90
-1 90 7 0 3 67 -4 87 -3 7 -1 24 4 37 5 13 6 26 3 30 -9 9 -11 76 -1 82 4 3 6
10 2 15 -8 13 -8 314 0 327 6 11 17 10 53 -1z"/>
<path d="M1988 2418 c-4 -11 -3 -477 1 -561 1 -32 53 -91 74 -84 19 6 16 69
-5 90 -10 10 -18 32 -19 50 0 18 -2 136 -3 262 -2 127 -3 236 -4 243 -1 6 -11
12 -21 12 -10 0 -21 -6 -23 -12z"/>
<path d="M2117 2423 c-3 -7 -2 -473 2 -560 2 -60 84 -119 86 -63 1 27 -12 61
-28 72 -7 4 -11 105 -12 275 -1 147 -3 271 -4 276 0 4 -10 7 -20 7 -11 0 -21
-3 -24 -7z"/>
<path d="M4879 2428 c-1 -2 -2 -146 -3 -321 -1 -303 0 -317 18 -323 10 -4 22
0 27 7 4 8 7 87 7 176 -1 159 -1 164 22 188 l24 25 20 -20 c19 -19 21 -34 22
-196 1 -96 4 -178 7 -181 3 -2 15 -2 26 2 20 6 21 12 20 178 -1 180 -13 247
-46 273 -24 18 -53 17 -75 -3 -17 -15 -18 -15 -19 13 0 16 -1 63 -2 104 -2 70
-4 75 -24 78 -13 2 -24 2 -24 0z"/>
<path d="M6119 2428 c-7 -14 -3 -640 3 -644 4 -3 16 -3 26 0 16 5 17 22 17
173 -1 159 0 169 21 195 18 22 25 25 37 15 28 -21 33 -58 32 -218 0 -163 7
-195 38 -164 12 11 14 47 12 187 -2 188 -7 221 -38 256 -24 26 -53 28 -79 5
-21 -19 -20 -24 -22 97 -1 90 -3 95 -24 98 -12 2 -23 2 -23 0z"/>
<path d="M1826 2409 c-10 -30 -26 -96 -31 -134 -4 -22 -8 -48 -11 -57 -3 -9
-7 -25 -9 -35 -2 -10 -12 -63 -24 -118 -11 -55 -22 -111 -25 -125 -8 -44 -25
-126 -28 -140 -3 -16 30 -24 49 -13 6 5 14 33 18 63 4 30 8 56 8 57 3 2 61 5
89 4 19 -1 27 -6 26 -18 0 -23 13 -97 18 -103 3 -2 16 -6 30 -8 25 -3 26 -1
20 35 -4 21 -9 52 -11 68 -6 35 -18 97 -34 175 -7 30 -14 71 -17 91 -11 74
-50 259 -57 265 -4 4 -9 1 -11 -7z m15 -236 c1 -10 2 -22 3 -28 5 -27 20 -141
21 -149 0 -5 -17 -10 -38 -12 -38 -1 -38 -1 -31 30 4 17 8 38 8 46 9 78 20
130 27 130 5 0 10 -8 10 -17z"/>
<path d="M2462 2407 c-30 -17 -45 -40 -72 -112 -43 -114 -33 -352 20 -455 24
-48 42 -61 85 -65 26 -3 43 3 65 21 37 32 44 53 27 92 l-13 32 -22 -30 c-26
-34 -61 -39 -84 -12 -52 57 -66 276 -26 387 25 68 66 86 110 47 15 -13 18 -12
22 9 7 29 9 50 7 65 -2 26 -85 40 -119 21z"/>
<path d="M5836 2394 c-18 -47 4 -103 33 -85 15 10 23 56 15 84 -7 21 -40 22
-48 1z"/>
<path d="M8345 2390 c-9 -28 3 -77 20 -84 27 -10 44 31 32 77 -9 32 -42 37
-52 7z"/>
<path d="M3087 2347 c-18 -23 -20 -29 -17 -68 0 -14 -6 -31 -14 -39 -21 -16
-21 -70 -1 -70 12 0 14 -25 14 -144 0 -162 10 -219 46 -242 37 -24 80 -7 79
32 -3 56 -2 55 -24 42 -37 -24 -45 1 -48 162 l-4 149 34 3 c24 2 33 8 32 21
-1 9 -2 25 -3 36 -1 13 -8 18 -28 17 -27 -1 -28 1 -31 54 -4 66 -11 76 -35 47z"/>
<path d="M6523 2353 c-19 -12 -23 -25 -23 -63 0 -31 -5 -50 -14 -53 -7 -3 -13
-17 -13 -32 0 -15 6 -29 13 -32 11 -4 14 -36 14 -147 0 -197 22 -261 86 -250
41 7 45 12 42 50 -2 31 -5 34 -24 30 -41 -11 -49 16 -50 171 l-2 143 29 0 c16
0 29 3 30 8 0 4 2 17 5 30 4 23 -6 31 -43 36 -15 2 -18 13 -20 61 -2 32 -4 59
-5 60 -2 2 -13 -4 -25 -12z"/>
<path d="M7541 2351 c-19 -15 -23 -27 -23 -64 1 -30 -3 -46 -10 -44 -7 1 -13
-14 -15 -35 -2 -28 1 -38 11 -38 11 0 14 -26 14 -144 1 -186 14 -241 62 -249
45 -8 69 8 67 45 -2 29 -6 33 -29 33 -15 1 -31 4 -35 9 -4 4 -9 75 -11 157
l-3 149 30 0 c35 0 39 5 32 45 -5 24 -11 30 -31 30 -23 0 -25 4 -30 62 l-5 62
-24 -18z"/>
<path d="M2649 2240 c-23 -13 -20 -357 4 -413 22 -51 61 -66 98 -38 23 17 28
18 33 6 3 -8 15 -15 26 -15 23 0 21 -20 21 284 0 171 -4 192 -38 179 -10 -4
-13 -42 -13 -173 0 -154 -2 -169 -21 -194 -11 -14 -27 -26 -34 -26 -31 0 -39
43 -40 212 0 95 -5 172 -10 177 -6 6 -16 6 -26 1z"/>
<path d="M2896 2231 c-30 -33 -39 -93 -24 -161 5 -23 41 -80 50 -80 13 0 48
-63 48 -86 0 -11 -6 -29 -14 -40 -14 -19 -15 -19 -46 4 -17 13 -33 22 -35 20
-1 -1 -5 -20 -8 -40 -6 -46 16 -70 66 -71 56 -1 88 47 89 131 0 58 -18 99 -60
141 -44 44 -57 93 -32 116 17 15 20 15 39 -6 25 -27 31 -22 38 24 3 28 0 38
-19 51 -30 21 -71 20 -92 -3z"/>
<path d="M3266 2220 c-32 -39 -47 -95 -51 -188 -6 -178 49 -280 134 -251 46
16 72 83 79 202 8 166 -32 267 -108 267 -19 0 -37 -10 -54 -30z m95 -83 c17
-40 19 -179 4 -230 -11 -38 -28 -57 -53 -57 -52 0 -61 256 -11 316 16 19 46 4
60 -29z"/>
<path d="M3474 2242 c-6 -4 -10 -85 -10 -232 l1 -225 23 -3 c12 -2 23 0 23 5
1 4 2 82 3 173 2 174 10 210 47 210 31 0 37 -33 35 -213 0 -93 2 -171 7 -174
4 -2 16 -2 26 2 18 5 19 18 20 171 0 91 3 173 6 184 9 28 45 37 59 14 14 -26
13 -13 15 -204 l1 -170 25 0 c24 0 24 1 27 108 5 171 -7 300 -30 331 -25 34
-64 39 -92 11 l-22 -22 -22 21 c-29 27 -72 27 -86 1 l-11 -21 -17 21 c-9 11
-22 17 -28 12z"/>
<path d="M3882 2232 c-44 -39 -65 -109 -65 -223 -1 -96 2 -111 27 -162 36 -74
90 -94 142 -52 24 19 26 26 20 58 l-7 37 -29 -22 c-24 -17 -34 -19 -53 -11
-24 11 -47 68 -47 117 0 26 0 26 76 25 52 -1 79 3 84 12 12 18 2 124 -14 163
-30 72 -89 97 -134 58z m98 -135 c0 -32 0 -32 -47 -30 -27 1 -52 2 -56 2 -8 1
-5 29 8 67 4 12 16 26 28 32 18 9 26 6 45 -14 13 -15 22 -38 22 -57z"/>
<path d="M4083 2242 c-7 -5 -11 -90 -11 -234 -1 -218 0 -228 18 -228 10 0 22
5 26 12 4 7 8 83 9 168 0 133 3 161 18 184 12 18 25 26 40 24 17 -2 22 4 28
32 4 19 5 38 3 42 -10 15 -50 8 -72 -12 -16 -15 -22 -17 -22 -6 0 16 -22 27
-37 18z"/>
<path d="M4262 2233 c-26 -23 -39 -68 -36 -120 4 -52 12 -68 64 -128 43 -50
54 -101 26 -124 -16 -13 -56 1 -56 19 0 6 -6 10 -13 10 -7 0 -14 -14 -15 -31
-1 -16 -3 -35 -5 -42 -1 -6 15 -20 35 -30 33 -16 41 -17 65 -5 79 38 76 187
-5 272 -31 33 -39 48 -38 76 1 40 26 52 56 25 12 -11 20 -13 25 -6 3 6 4 11 1
11 -2 0 -1 13 4 29 7 24 4 30 -20 45 -36 21 -63 20 -88 -1z"/>
<path d="M4526 2243 c-2 -2 1 -25 6 -51 4 -26 11 -60 14 -77 3 -16 7 -39 9
-50 2 -20 34 -205 41 -238 7 -37 16 -57 23 -53 9 6 28 88 53 219 10 59 15 65
23 31 2 -11 11 -48 19 -84 48 -215 50 -216 76 -65 5 33 12 69 14 80 37 196 48
278 36 285 -26 16 -39 -3 -50 -73 -15 -99 -32 -178 -37 -173 -2 2 -6 16 -9 32
-3 16 -10 49 -16 74 -5 25 -12 57 -14 71 -2 14 -8 39 -14 55 -15 40 -22 24
-50 -114 -13 -62 -27 -109 -31 -105 -4 4 -10 28 -13 53 -3 25 -8 56 -11 70 -2
14 -7 42 -9 64 -3 21 -8 41 -11 44 -6 7 -43 10 -49 5z"/>
<path d="M5165 2232 c-45 -39 -65 -117 -61 -246 2 -68 9 -104 26 -143 21 -50
31 -59 79 -68 23 -4 71 29 71 50 0 7 4 15 9 17 25 9 35 254 13 320 -27 78 -90
110 -137 70z m91 -117 c11 -41 11 -150 -1 -203 -7 -36 -29 -62 -51 -62 -53 0
-67 233 -18 308 14 21 17 22 37 9 12 -8 27 -31 33 -52z"/>
<path d="M5465 2239 c-3 -5 -1 -36 5 -69 10 -55 13 -72 25 -140 5 -27 23 -123
29 -155 2 -11 7 -39 11 -62 4 -24 10 -43 15 -43 8 0 18 35 50 185 24 108 22
104 30 70 4 -16 15 -66 24 -110 32 -153 47 -176 61 -92 4 23 9 53 12 67 2 14
6 32 8 40 3 8 7 33 10 55 3 22 7 51 10 65 3 14 8 42 11 63 3 21 7 46 9 55 2 9
4 20 4 25 1 4 6 7 12 7 6 0 9 -6 6 -14 -3 -8 2 -16 14 -19 18 -5 19 -16 19
-196 0 -185 1 -191 20 -191 11 0 23 7 27 16 3 9 7 111 7 226 1 221 0 227 -44
222 -8 -1 -21 -2 -27 -3 -7 0 -13 -8 -13 -16 0 -8 -5 -15 -10 -15 -6 0 -10 8
-8 17 3 16 -7 19 -40 14 -4 0 -8 -9 -8 -18 -1 -10 -9 -61 -18 -113 -10 -52
-18 -101 -19 -108 -1 -26 -16 5 -25 53 -6 28 -12 59 -15 70 -3 11 -8 39 -12
62 -4 24 -11 46 -17 49 -15 10 -15 9 -33 -83 -3 -16 -8 -37 -12 -47 -3 -11 -7
-35 -9 -53 -6 -64 -20 -70 -29 -12 -5 30 -9 56 -10 59 0 3 -4 30 -8 60 -5 30
-12 62 -17 69 -10 17 -38 23 -45 10z"/>
<path d="M5955 2225 c-14 -13 -26 -30 -26 -37 -9 -101 0 -140 46 -188 56 -60
68 -99 41 -136 -14 -19 -15 -19 -46 4 -17 13 -33 22 -34 20 -2 -1 -6 -19 -10
-39 -5 -29 -2 -39 14 -54 26 -23 82 -25 104 -3 30 31 54 132 34 144 -5 3 -6 9
-3 14 9 15 -33 88 -60 106 -29 19 -46 70 -33 97 11 22 44 22 57 0 12 -23 19
-15 26 29 5 30 2 39 -17 52 -32 23 -65 20 -93 -9z"/>
<path d="M6706 2229 c-64 -50 -81 -285 -29 -397 29 -60 95 -74 136 -29 39 45
59 182 44 302 -15 121 -83 177 -151 124z m94 -113 c15 -55 9 -190 -11 -231
-18 -37 -49 -43 -68 -13 -19 30 -26 182 -12 235 23 86 68 90 91 9z"/>
<path d="M7034 2235 c-7 -18 -11 -625 -4 -626 52 -9 50 -12 50 88 0 51 2 93 5
93 3 0 13 -5 23 -11 23 -14 66 3 88 36 47 72 55 296 12 379 -25 50 -82 71
-111 41 -11 -10 -17 -11 -19 -3 -6 16 -38 19 -44 3z m132 -96 c8 -16 12 -29 8
-29 -4 0 -2 -6 3 -12 15 -20 7 -171 -11 -206 -19 -37 -50 -49 -71 -28 -12 11
-15 43 -15 147 0 113 3 135 18 149 23 22 49 14 68 -21z"/>
<path d="M7297 2227 c-25 -21 -26 -25 -16 -61 l11 -38 22 21 c39 37 68 24 81
-36 6 -31 5 -33 -20 -33 -65 0 -107 -61 -110 -160 -2 -68 22 -139 48 -141 6 0
20 -2 29 -4 10 -2 27 7 40 20 l21 22 21 -23 c15 -17 25 -21 35 -15 12 8 13 16
3 48 -6 21 -12 101 -13 177 -1 145 -9 187 -41 222 -25 28 -76 29 -111 1z m102
-276 c-1 -63 -20 -101 -52 -101 -22 0 -39 34 -33 67 2 16 5 34 5 41 1 19 39
52 60 52 18 0 20 -7 20 -59z"/>
<path d="M7691 2240 c-7 -4 -12 -24 -11 -46 1 -22 1 -43 0 -49 -1 -5 -1 -14 0
-20 2 -13 2 -87 0 -100 -1 -5 -1 -14 0 -20 1 -5 1 -30 1 -55 -4 -150 -1 -166
25 -168 19 -1 24 3 25 21 0 12 1 87 2 167 2 129 4 149 23 178 19 31 22 32 37
18 15 -15 17 -13 27 24 6 22 8 45 5 50 -11 17 -48 11 -72 -12 -18 -17 -23 -18
-23 -6 0 19 -22 29 -39 18z"/>
<path d="M7893 2228 c-43 -48 -57 -104 -56 -233 0 -159 52 -242 132 -214 52
18 75 83 78 219 2 129 -8 178 -49 221 -32 36 -76 38 -105 7z m86 -80 c29 -47
19 -261 -14 -288 -23 -19 -53 -2 -66 37 -13 39 -15 154 -4 205 16 72 54 93 84
46z"/>
<path d="M8094 2242 c-6 -4 -9 -89 -8 -222 2 -263 -1 -242 27 -238 22 3 22 4
22 173 0 160 2 172 22 198 l22 28 20 -20 c24 -24 23 -21 25 -226 1 -147 2
-150 24 -153 12 -2 23 0 24 5 7 37 4 338 -4 377 -17 80 -69 110 -116 66 -22
-21 -37 -27 -28 -11 8 12 -17 31 -30 23z"/>
<path d="M8329 2241 c-20 -8 -20 -63 0 -77 14 -11 16 -38 16 -196 0 -182 0
-183 23 -186 12 -2 23 0 23 5 8 45 2 446 -6 451 -13 8 -39 10 -56 3z"/>
<path d="M8435 2240 c-1 -3 -2 -21 -1 -40 l1 -35 61 -3 60 -3 -63 -175 c-35
-96 -63 -181 -63 -188 0 -12 19 -14 97 -13 96 2 97 2 104 30 11 40 -9 54 -70
52 -59 -2 -59 0 -21 95 12 30 21 55 20 55 -1 0 4 14 10 30 35 91 63 185 57
191 -8 8 -188 12 -192 4z"/>
<path d="M8714 2232 c-47 -37 -73 -130 -69 -243 6 -176 77 -256 173 -193 20
13 23 22 19 51 -8 46 -11 49 -36 24 -12 -12 -28 -21 -36 -21 -16 0 -55 38 -56
54 0 6 -2 18 -4 26 -14 68 -17 65 70 68 44 2 82 5 85 8 8 9 3 108 -9 150 -22
80 -88 116 -137 76z m80 -84 c9 -12 16 -34 16 -49 0 -23 -5 -27 -32 -30 -18
-2 -44 -2 -57 -1 -20 3 -22 8 -17 35 13 63 61 87 90 45z"/>
<path d="M3303 1528 c-13 -18 -9 -556 5 -590 6 -15 23 -35 37 -44 23 -15 28
-15 35 -3 14 22 5 68 -15 83 -16 12 -18 34 -18 282 1 258 -2 283 -28 284 -4 0
-11 -6 -16 -12z"/>
<path d="M6716 1532 c-2 -4 -4 -152 -4 -329 0 -256 3 -323 13 -323 7 0 16 7
19 15 5 14 8 14 31 -1 52 -34 111 15 134 110 29 119 -5 320 -57 341 -29 12
-72 15 -72 5 0 -6 -4 -10 -9 -10 -4 0 -8 41 -8 90 0 50 -3 94 -7 97 -9 10 -35
12 -40 5z m116 -269 c27 -34 35 -68 33 -153 -1 -81 -14 -126 -39 -142 -13 -9
-48 0 -57 14 -3 5 -6 68 -6 139 0 100 3 134 14 145 19 19 37 18 55 -3z"/>
<path d="M6964 1528 c-11 -18 -7 -531 5 -575 12 -44 44 -75 67 -66 21 8 18 70
-3 82 -16 9 -18 36 -23 287 -5 254 -6 277 -22 280 -10 1 -21 -2 -24 -8z"/>
<path d="M7394 1533 c-7 -2 -9 -188 -4 -610 0 -28 4 -33 25 -33 l25 0 0 174
c0 154 2 176 18 197 23 27 48 21 62 -16 6 -15 10 -100 10 -191 l0 -164 25 0
c17 0 25 6 26 18 7 196 -2 366 -22 404 -25 47 -68 58 -105 27 -12 -10 -14 4
-14 93 0 95 -2 104 -19 104 -10 0 -23 -2 -27 -3z"/>
<path d="M4635 1486 c-7 -34 7 -76 25 -76 26 0 40 76 18 98 -21 21 -37 13 -43
-22z"/>
<path d="M7115 1510 c-12 -19 -14 -51 -5 -76 8 -20 13 -23 29 -15 25 14 30 30
19 69 -8 31 -30 42 -43 22z"/>
<path d="M6332 1452 c-13 -10 -20 -21 -16 -25 15 -15 9 -70 -7 -74 -23 -6 -21
-52 3 -83 11 -14 15 -26 9 -28 -7 -2 -8 -10 -1 -22 6 -11 6 -21 1 -24 -5 -3
-5 -21 -1 -41 5 -21 4 -35 -2 -35 -5 0 -6 -5 -2 -11 3 -6 7 -43 9 -83 3 -109
36 -156 98 -141 21 6 25 13 25 47 1 36 -1 39 -21 34 -48 -12 -52 2 -52 161 l0
148 28 0 c30 -1 29 -2 31 43 2 32 -8 38 -52 33 -9 -2 -12 13 -10 55 3 63 -5
73 -40 46z"/>
<path d="M8504 1456 c-16 -12 -20 -23 -17 -56 2 -29 -1 -42 -12 -46 -19 -8
-20 -70 -1 -77 10 -4 13 -34 13 -134 -1 -203 12 -250 71 -258 48 -6 64 12 53
60 -5 22 -9 34 -10 28 -1 -18 -26 -16 -45 3 -13 13 -16 42 -16 161 0 138 1
145 19 140 32 -8 45 9 42 56 -1 12 -10 17 -31 17 l-30 0 0 60 c0 64 -4 68 -36
46z"/>
<path d="M2000 1353 c-21 -9 -51 -44 -44 -54 3 -5 7 -19 9 -30 6 -31 13 -35
28 -16 15 22 53 29 65 14 5 -7 13 -27 17 -44 6 -31 5 -33 -22 -33 -55 -1 -103
-64 -108 -144 -10 -131 56 -203 128 -139 9 9 17 12 17 6 0 -8 41 -33 55 -33 9
0 5 59 -4 64 -5 4 -10 73 -10 155 -2 153 -10 201 -42 236 -18 21 -60 29 -89
18z m68 -241 c21 -14 10 -119 -15 -144 -21 -20 -21 -20 -40 -1 -15 15 -19 31
-17 59 3 51 2 47 22 72 18 23 30 26 50 14z"/>
<path d="M2257 1337 c-15 -18 -17 -19 -17 -4 0 11 -8 17 -25 17 -29 0 -27 11
-26 -190 1 -296 -2 -270 25 -270 23 0 24 3 24 58 0 31 1 62 2 67 2 6 1 15 0
20 -5 22 -2 132 4 168 9 55 27 79 53 72 18 -4 24 0 29 22 3 16 7 34 10 41 2 6
-2 13 -9 13 -7 1 -21 3 -33 4 -11 1 -28 -7 -37 -18z"/>
<path d="M2418 1350 c-23 -14 -59 -74 -66 -113 -4 -17 -7 -75 -7 -127 0 -141
34 -217 101 -224 30 -4 59 7 81 30 16 15 16 25 3 60 l-10 27 -18 -21 c-21 -24
-57 -25 -76 -2 -17 19 -32 68 -32 100 1 24 3 25 79 27 43 1 81 4 84 6 7 7 6
87 -2 127 -8 41 -28 82 -49 99 -20 17 -67 23 -88 11z m58 -78 c17 -11 34 -48
34 -74 0 -21 -4 -23 -50 -23 -66 0 -75 11 -49 63 20 40 40 51 65 34z"/>
<path d="M2718 1353 c-17 -4 -17 -24 2 -113 6 -25 12 -61 15 -80 2 -19 7 -47
10 -62 11 -58 16 -84 21 -121 9 -59 20 -92 30 -92 5 0 15 27 22 60 7 33 15 69
17 80 3 11 7 31 11 45 3 14 7 32 9 40 2 8 4 22 5 30 2 32 18 -16 39 -120 30
-141 31 -144 44 -131 6 6 12 19 13 28 5 32 17 108 20 118 4 17 15 78 19 105 2
14 11 61 19 105 20 101 20 102 -3 108 -29 7 -35 -13 -67 -218 -3 -22 -7 -41
-9 -43 -2 -2 -8 23 -15 55 -6 32 -14 65 -17 73 -3 8 -7 29 -8 45 -7 63 -44
117 -46 68 -1 -20 -1 -20 -24 -128 -24 -116 -27 -118 -40 -35 -7 41 -16 93
-20 115 -4 22 -7 45 -8 52 0 15 -16 21 -39 16z"/>
<path d="M3105 1338 c-54 -47 -81 -208 -55 -332 15 -73 66 -129 110 -122 53 8
82 38 73 76 -9 39 -12 41 -33 20 -11 -11 -27 -20 -35 -20 -21 0 -65 45 -66 67
0 10 -2 32 -5 50 l-4 31 68 1 c37 0 75 0 85 0 16 1 18 9 16 64 -5 147 -80 228
-154 165z m89 -92 c19 -41 21 -66 4 -67 -101 -9 -110 -6 -97 29 6 15 10 29 10
32 -1 3 6 13 14 23 24 27 51 21 69 -17z"/>
<path d="M3490 1347 c-43 -21 -74 -99 -78 -201 -5 -109 10 -182 47 -226 31
-38 69 -46 112 -24 34 17 41 36 28 73 l-11 30 -29 -22 c-35 -25 -55 -18 -80
31 -23 45 -20 183 6 235 17 35 21 38 49 33 16 -4 33 -12 37 -18 10 -16 18 -8
28 30 8 27 6 33 -17 49 -35 23 -61 26 -92 10z"/>
<path d="M3687 1337 c-55 -52 -77 -201 -49 -331 21 -97 67 -139 129 -115 26
10 63 77 67 123 2 18 5 37 7 42 15 29 -3 181 -27 240 -25 61 -86 81 -127 41z
m90 -101 c23 -75 11 -232 -20 -263 -22 -22 -55 -7 -66 30 -16 59 -10 208 11
249 16 34 20 37 42 27 13 -6 28 -25 33 -43z"/>
<path d="M3946 1341 c-17 -19 -20 -19 -31 -4 -7 9 -18 14 -26 11 -11 -4 -14
-47 -14 -229 l1 -224 24 0 25 0 1 160 c1 159 6 203 28 217 16 11 23 10 40 -7
11 -12 14 -43 15 -147 0 -244 -2 -228 26 -228 l25 0 0 170 c0 196 12 242 56
212 20 -14 23 -42 24 -213 l2 -170 26 3 26 3 1 160 c0 88 -3 180 -7 205 -16
89 -72 123 -122 73 -24 -24 -24 -24 -31 -4 -3 12 -12 21 -18 21 -7 0 -21 3
-32 6 -13 3 -27 -2 -39 -15z"/>
<path d="M4281 1324 c-81 -99 -69 -375 19 -428 52 -30 138 12 120 59 -5 13 -6
26 -3 29 4 3 -1 6 -9 6 -9 0 -21 -7 -28 -15 -34 -41 -90 8 -93 82 l-2 48 80 5
80 5 2 45 c3 60 -23 147 -52 174 -39 36 -78 32 -114 -10z m102 -85 c25 -52 16
-65 -43 -65 -55 1 -65 11 -49 53 24 65 63 70 92 12z"/>
<path d="M4618 1352 c-23 -5 -22 -73 1 -79 14 -3 16 -28 15 -194 l-2 -189 24
0 c13 0 24 6 25 13 1 6 2 110 3 229 l1 216 -25 4 c-14 2 -33 2 -42 0z"/>
<path d="M4810 1340 c-24 -24 -30 -25 -30 -5 0 15 -39 22 -41 8 -1 -12 -1
-384 0 -420 1 -28 5 -33 26 -33 l25 0 0 173 c0 140 3 177 16 195 18 26 37 28
55 5 10 -12 15 -58 16 -177 1 -89 3 -169 3 -178 0 -13 8 -18 26 -18 l26 0 -4
198 c-3 162 -6 203 -20 228 -26 48 -65 57 -98 24z"/>
<path d="M5149 1329 c-53 -57 -71 -236 -34 -354 20 -63 40 -84 85 -90 65 -8
108 81 112 230 3 145 -33 231 -101 240 -28 3 -39 -2 -62 -26z m94 -81 c22 -46
18 -225 -6 -262 -10 -14 -21 -26 -26 -26 -26 0 -42 16 -52 53 -14 54 -9 194
10 235 20 43 53 44 74 0z"/>
<path d="M5660 1338 c-17 -18 -20 -19 -20 -5 0 11 -8 17 -25 17 l-25 0 0 -230
0 -230 25 0 25 0 1 138 c1 75 0 143 -1 151 -1 8 6 34 15 58 15 39 20 44 41 39
20 -5 24 -1 33 31 12 42 12 42 -22 49 -18 3 -32 -3 -47 -18z"/>
<path d="M5954 1352 c-43 -30 -76 -123 -78 -222 -5 -194 86 -304 180 -218 19
17 20 24 11 54 l-10 34 -22 -20 c-47 -44 -105 9 -105 95 l0 34 77 0 c46 0 79
5 83 12 21 33 -6 165 -42 212 -14 19 -77 31 -94 19z m65 -86 c7 -8 14 -27 17
-42 3 -15 7 -31 10 -36 6 -9 -1 -10 -69 -12 l-48 -1 5 29 c13 65 57 96 85 62z"/>
<path d="M6146 1333 c-14 -15 -26 -37 -27 -48 -1 -11 -2 -32 -3 -47 -4 -42 18
-93 63 -144 44 -51 55 -100 26 -124 -13 -11 -21 -9 -46 9 -17 13 -33 20 -36
17 -4 -3 -4 -6 -1 -6 3 0 2 -16 -2 -35 -9 -40 8 -61 56 -69 63 -11 101 48 96
149 -3 52 -23 92 -66 133 -60 56 -45 138 17 97 23 -14 25 -14 31 0 19 50 0 83
-53 91 -23 4 -35 -1 -55 -23z"/>
<path d="M6512 1340 c-30 -19 -33 -24 -27 -53 11 -47 15 -51 39 -28 29 28 67
21 72 -13 1 -7 5 -23 9 -35 6 -18 2 -21 -26 -21 -50 0 -96 -55 -102 -122 -11
-111 0 -155 42 -178 22 -11 70 2 83 23 5 8 12 6 23 -10 16 -23 50 -25 51 -2 0
8 -4 25 -8 38 -5 14 -9 70 -9 125 0 56 -3 129 -6 164 -10 113 -66 158 -141
112z m85 -228 c15 -9 12 -98 -5 -128 -41 -75 -96 20 -57 97 13 24 27 36 45 38
3 0 10 -3 17 -7z"/>
<path d="M7095 1351 c-16 -5 -21 -14 -20 -38 0 -18 4 -32 9 -30 18 5 22 -42
21 -215 l-1 -178 23 0 c13 0 24 6 24 13 1 6 2 110 3 229 1 210 1 217 -19 220
-11 2 -29 2 -40 -1z"/>
<path d="M7249 1353 c-8 -2 -23 -18 -33 -35 -37 -61 -16 -173 41 -218 32 -25
55 -88 41 -113 -15 -28 -35 -31 -60 -8 -24 23 -34 16 -38 -24 -5 -44 11 -61
66 -71 33 -6 83 43 85 83 6 118 4 126 -63 200 -37 42 -46 74 -29 102 10 15 16
13 72 -16 3 -2 6 16 7 41 2 41 0 45 -29 55 -18 6 -35 10 -38 10 -3 -1 -13 -3
-22 -6z"/>
<path d="M7637 1353 c-6 -9 -9 -141 -8 -355 1 -107 1 -108 25 -108 13 0 26 4
28 10 2 5 1 49 -2 96 -3 47 -2 87 1 89 3 2 2 29 -1 59 -3 31 -3 56 1 56 4 0 5
9 2 20 -6 22 21 60 43 60 19 0 36 -36 34 -73 -1 -18 -1 -34 0 -37 6 -18 4
-138 -2 -152 -5 -10 -5 -18 -1 -18 4 0 8 -24 8 -52 0 -49 2 -53 25 -56 l25 -3
-1 170 c-2 175 5 213 39 219 33 6 42 -44 41 -222 l0 -167 25 3 26 3 -1 175 c0
239 -10 277 -73 285 -23 3 -37 -2 -52 -18 -20 -21 -21 -21 -34 -3 -20 27 -68
30 -90 6 -17 -19 -18 -19 -35 2 -9 12 -20 17 -23 11z"/>
<path d="M8052 1345 c-43 -31 -65 -92 -70 -196 -9 -191 57 -300 154 -254 34
16 46 36 39 60 -16 51 -14 50 -36 26 -15 -15 -28 -21 -43 -17 -11 3 -24 6 -28
6 -9 0 -28 58 -34 103 -5 35 -3 38 18 37 13 -1 51 -2 85 -1 l63 1 -3 73 c-3
70 -24 134 -51 156 -24 20 -70 23 -94 6z m71 -83 c9 -10 18 -33 19 -52 l3 -35
-45 0 c-67 -2 -70 1 -58 43 15 58 51 78 81 44z"/>
<path d="M8313 1348 c-13 -6 -23 -16 -23 -22 0 -6 -7 -3 -15 8 -8 10 -20 16
-28 13 -12 -5 -15 -44 -14 -232 l1 -226 25 3 26 3 0 165 c1 91 4 175 8 187 11
31 47 40 64 17 15 -20 15 -22 16 -227 l1 -148 25 3 26 3 0 154 c1 186 -5 243
-32 279 -22 30 -47 36 -80 20z"/>
<path d="M5345 1158 c1 -160 4 -199 18 -225 28 -53 58 -63 100 -32 22 16 27
17 27 4 0 -9 9 -15 25 -15 21 0 25 5 25 28 0 15 2 118 3 230 l2 202 -27 0 -28
0 0 -169 c0 -155 -2 -170 -21 -195 -11 -14 -27 -26 -34 -26 -30 0 -39 44 -41
210 -1 91 -2 168 -3 173 0 4 -12 7 -24 7 l-24 0 2 -192z"/>
<path d="M1877 523 c-4 -7 -3 -102 2 -125 0 -5 19 -8 42 -8 25 0 38 4 34 10
-4 6 -14 10 -23 9 -38 -3 -41 1 -41 57 1 53 -4 74 -14 57z"/>
<path d="M2279 524 c-8 -16 -4 -119 5 -122 5 -1 9 21 10 48 1 51 -7 91 -15 74z"/>
<path d="M2319 523 c-1 -16 -1 -97 0 -120 1 -9 4 -13 8 -9 10 10 11 112 2 128
-7 10 -9 10 -10 1z"/>
<path d="M2444 518 c-3 -4 6 -8 20 -8 25 0 26 -2 26 -60 0 -33 4 -60 10 -60 6
0 10 27 10 60 0 53 2 60 20 60 11 0 20 4 20 8 0 11 -100 11 -106 0z"/>
<path d="M2910 460 c0 -71 13 -92 18 -28 5 63 46 62 44 -1 0 -17 4 -33 9 -36
11 -8 12 65 0 84 -5 8 -19 12 -34 9 -19 -4 -23 -1 -20 13 3 9 0 20 -6 23 -8 5
-11 -15 -11 -64z"/>
<path d="M6416 514 c-9 -8 -16 -19 -16 -24 0 -15 31 -40 49 -40 21 0 44 -23
34 -33 -10 -11 -63 -8 -63 3 0 6 -7 10 -17 10 -14 0 -14 -2 2 -20 21 -23 53
-26 79 -7 28 20 16 50 -24 63 -43 14 -54 44 -16 44 14 0 26 -4 26 -10 0 -5 5
-10 10 -10 16 0 11 27 -6 34 -25 10 -42 7 -58 -10z"/>
<path d="M6848 523 c0 -5 -2 -15 -2 -23 -1 -9 -9 -14 -20 -12 -29 5 -53 -24
-48 -58 2 -16 7 -31 11 -31 3 -1 21 -3 38 -5 l32 -2 0 69 c-1 59 -5 87 -11 62z
m-5 -73 c3 -11 -1 -27 -8 -36 -11 -16 -14 -16 -28 -2 -16 16 -17 34 -4 55 10
16 34 6 40 -17z"/>
<path d="M6924 518 c-3 -4 6 -8 20 -8 25 0 26 -2 26 -60 0 -36 4 -60 11 -60 6
0 10 10 9 23 -1 12 -2 39 -1 60 1 30 5 37 21 37 11 0 20 4 20 8 0 11 -100 11
-106 0z"/>
<path d="M7388 498 c-4 -47 3 -108 12 -108 5 0 8 12 6 28 -4 40 11 64 33 53
11 -7 17 -20 15 -40 -1 -17 2 -34 7 -37 10 -6 12 56 3 80 -4 10 -18 16 -35 16
-20 0 -27 4 -23 14 3 8 1 17 -5 20 -5 4 -11 -8 -13 -26z"/>
<path d="M7743 518 c-9 -10 -53 -115 -53 -125 0 -2 4 -3 9 -3 5 0 13 9 16 20
5 15 15 20 41 20 19 0 33 -3 33 -7 -3 -20 2 -34 11 -28 6 3 1 26 -11 58 -30
76 -33 81 -46 65z m27 -59 c0 -13 -15 -18 -28 -10 -6 4 -9 17 -5 30 6 23 7 23
20 6 7 -11 13 -22 13 -26z"/>
<path d="M8028 518 c-2 -7 -4 -38 -4 -68 l1 -55 38 -2 c20 0 40 4 43 9 4 7 -6
9 -29 6 l-35 -4 2 54 c1 54 -7 86 -16 60z"/>
<path d="M8429 518 c-4 -63 0 -132 8 -125 9 10 10 127 1 133 -4 3 -8 -1 -9 -8z"/>
<path d="M8470 459 c0 -40 3 -69 7 -65 10 9 11 126 1 132 -4 3 -8 -27 -8 -67z"/>
<path d="M2864 513 c3 -6 2 -14 -2 -17 -9 -5 -8 -28 4 -83 2 -13 11 -23 19
-23 16 0 21 16 6 22 -16 5 -21 57 -7 65 10 6 9 13 -7 28 -11 11 -17 15 -13 8z"/>
<path d="M6523 502 c-6 -10 -8 -24 -4 -30 4 -6 7 -24 6 -39 -1 -27 10 -43 29
-43 5 0 4 6 -1 13 -15 19 -15 77 -1 77 9 0 10 3 2 8 -6 4 -13 13 -15 20 -3 8
-8 6 -16 -6z"/>
<path d="M7342 462 c0 -34 5 -65 10 -68 15 -10 18 1 9 33 -5 16 -5 36 0 45 5
9 3 22 -6 34 -13 17 -15 13 -13 -44z"/>
<path d="M7924 513 c3 -6 2 -14 -3 -18 -6 -3 -8 -12 -5 -19 3 -8 7 -29 8 -48
2 -23 8 -34 21 -37 16 -3 17 -1 7 12 -7 8 -12 34 -11 56 2 24 -3 46 -11 54 -9
8 -11 8 -6 0z"/>
<path d="M1980 469 c-24 -45 17 -91 64 -73 18 7 21 46 6 75 -14 26 -56 25 -70
-2z m53 -3 c8 -8 12 -26 10 -39 -4 -19 -10 -23 -29 -19 -19 3 -24 11 -24 32 0
16 6 31 13 33 6 3 13 6 14 6 1 1 8 -5 16 -13z"/>
<path d="M2085 473 c-24 -54 29 -111 64 -70 16 20 2 29 -16 11 -29 -28 -53 16
-30 54 6 8 14 9 27 2 27 -14 34 -12 20 5 -17 20 -56 19 -65 -2z"/>
<path d="M2179 473 c-15 -18 -16 -18 34 2 12 5 17 2 17 -9 0 -9 -4 -16 -10
-16 -5 0 -10 -5 -10 -11 0 -5 4 -8 9 -4 5 3 12 1 16 -4 3 -6 -3 -15 -14 -20
-29 -16 -34 -14 -27 14 5 19 3 23 -9 18 -9 -3 -15 -15 -13 -27 2 -17 10 -21
43 -21 40 -1 41 -1 39 36 0 20 -4 41 -8 48 -11 17 -52 13 -67 -6z"/>
<path d="M2361 478 c-1 -9 4 -29 11 -45 17 -43 18 -54 2 -60 -8 -3 -11 -9 -8
-14 9 -16 22 -10 29 14 4 12 15 41 26 64 23 51 24 59 5 44 -8 -7 -17 -24 -21
-39 -6 -26 -6 -26 -25 13 -10 22 -19 32 -19 23z"/>
<path d="M2561 481 c-8 -5 -16 -23 -17 -39 -1 -23 4 -33 23 -43 42 -23 73 11
59 67 -7 25 -37 32 -65 15z m39 -11 c20 -11 21 -24 3 -55 -11 -19 -13 -19 -29
-3 -11 11 -15 24 -10 42 7 29 10 30 36 16z"/>
<path d="M2664 482 c-35 -24 -14 -95 26 -87 13 2 20 -2 20 -11 0 -17 -46 -19
-53 -1 -3 7 -6 5 -6 -5 -1 -10 2 -19 7 -19 60 -11 72 3 72 78 0 46 -2 49 -27
51 -16 1 -33 -2 -39 -6z m39 -17 c21 -21 10 -57 -16 -53 -23 3 -32 35 -15 55
13 16 13 16 31 -2z"/>
<path d="M2762 478 c-17 -17 -15 -56 3 -74 21 -22 60 -14 60 11 0 11 4 23 9
26 4 4 3 16 -3 28 -13 23 -50 28 -69 9z m58 -19 c0 -5 -11 -9 -25 -9 -26 0
-34 15 -12 23 16 5 37 -3 37 -14z m-2 -36 c2 -8 -6 -13 -22 -13 -15 0 -26 6
-26 14 0 17 42 16 48 -1z"/>
<path d="M3022 478 c-7 -7 -12 -24 -12 -38 0 -14 5 -31 12 -38 17 -17 53 -15
69 5 12 15 12 16 -6 9 -11 -4 -22 -8 -25 -8 -20 -2 -30 4 -30 17 0 10 9 14 30
11 36 -4 45 6 30 34 -12 22 -49 27 -68 8z m58 -19 c0 -5 -11 -9 -25 -9 -26 0
-34 15 -12 23 16 5 37 -3 37 -14z"/>
<path d="M3119 478 c-1 -12 -1 -66 0 -80 1 -9 5 -8 11 3 5 8 7 24 6 35 -4 22
12 46 25 38 5 -3 9 0 9 5 0 12 -50 11 -51 -1z"/>
<path d="M3225 466 c-13 -19 -14 -28 -3 -51 10 -23 16 -26 42 -21 36 7 34 5
40 39 9 52 -50 78 -79 33z m49 8 c32 -12 10 -76 -23 -67 -19 5 -23 36 -7 61 8
14 9 14 30 6z"/>
<path d="M3324 440 c0 -32 4 -46 12 -43 6 2 9 15 6 30 -4 19 1 30 19 44 l24
18 -30 -1 c-30 -1 -31 -2 -31 -48z"/>
<path d="M3394 478 c-25 -40 -1 -95 37 -85 22 6 25 -6 6 -21 -10 -9 -19 -7
-35 4 -19 13 -21 13 -16 0 9 -23 43 -30 63 -12 12 11 17 31 16 68 0 52 -1 53
-32 56 -18 2 -35 -2 -39 -10z m54 -37 c-4 -35 -41 -37 -46 -2 -4 26 13 42 35
34 8 -3 13 -16 11 -32z"/>
<path d="M6582 483 c-6 -2 -9 -9 -6 -14 4 -6 11 -6 19 1 13 11 48 3 40 -10 -2
-4 -18 -10 -36 -14 -25 -5 -30 -10 -27 -28 2 -19 9 -23 38 -23 19 0 38 4 42 9
6 9 2 47 -7 74 -4 12 -38 15 -63 5z m46 -70 c-9 -8 -22 -11 -33 -7 -17 7 -17
8 0 20 9 7 24 10 32 7 12 -5 13 -8 1 -20z"/>
<path d="M6679 485 c0 -3 -1 -21 -1 -40 0 -52 1 -57 10 -51 5 3 8 19 7 36 -2
36 21 62 36 39 5 -8 8 -26 6 -41 -2 -15 2 -29 8 -32 11 -4 12 5 6 82 -1 11
-70 18 -72 7z"/>
<path d="M7033 478 c-4 -7 -8 -26 -9 -41 -2 -36 28 -54 62 -38 27 12 33 58 12
79 -16 16 -55 15 -65 0z m58 -22 c4 -39 -16 -62 -38 -44 -17 13 -17 55 0 61
17 6 37 -3 38 -17z"/>
<path d="M7131 468 c-5 -13 -4 -35 1 -50 8 -22 15 -27 34 -24 17 3 24 0 24
-11 0 -12 -7 -14 -32 -9 -25 5 -30 4 -20 -6 20 -20 51 -19 62 1 5 11 10 42 10
68 0 49 0 49 -35 51 -29 2 -37 -2 -44 -20z m62 -38 c-6 -22 -42 -28 -45 -7 -4
35 -2 43 12 48 19 9 39 -16 33 -41z"/>
<path d="M7242 478 c-17 -17 -15 -63 3 -78 16 -14 65 -6 65 11 0 6 -6 6 -17 1
-23 -12 -43 -5 -43 14 0 10 8 13 29 9 35 -6 46 7 31 35 -12 22 -49 27 -68 8z
m42 -4 c25 -9 19 -24 -9 -24 -24 0 -32 10 -18 23 8 8 8 8 27 1z"/>
<path d="M7501 476 c-17 -20 -10 -67 11 -79 12 -8 24 -7 45 2 20 10 24 15 14
19 -8 3 -17 0 -18 -5 -6 -16 -43 -3 -43 14 0 8 8 13 18 12 48 -4 59 6 39 39
-11 16 -52 15 -66 -2z m59 -17 c0 -5 -11 -9 -25 -9 -26 0 -34 15 -12 23 16 5
37 -3 37 -14z"/>
<path d="M7599 473 c-4 -47 0 -87 8 -79 4 3 7 20 7 36 1 17 9 35 21 44 19 15
19 15 -7 14 -16 -1 -28 -8 -29 -15z"/>
<path d="M7832 478 c-25 -25 -6 -88 27 -88 10 0 26 9 36 20 10 11 13 20 8 20
-6 0 -16 -6 -23 -14 -14 -18 -36 -11 -43 13 -8 31 28 60 49 39 14 -15 26 -8
14 7 -15 18 -51 20 -68 3z"/>
<path d="M8134 478 c-14 -21 -12 -61 2 -76 35 -35 94 23 68 66 -14 21 -59 28
-70 10z m57 -17 c0 -3 2 -13 4 -21 2 -15 -11 -33 -29 -39 -23 -7 -36 64 -13
72 14 5 37 -2 38 -12z"/>
<path d="M8235 480 c-12 -19 -8 -72 6 -81 21 -13 45 -11 59 6 18 22 4 31 -16
10 -17 -16 -18 -16 -31 1 -26 35 -5 71 30 53 15 -9 18 -8 15 3 -6 16 -54 23
-63 8z"/>
<path d="M8332 483 c-6 -2 -9 -9 -6 -14 4 -6 11 -6 19 1 10 8 20 8 32 1 17 -9
17 -10 -2 -16 -38 -12 -50 -22 -50 -41 0 -15 8 -19 38 -19 20 0 37 2 38 5 12
75 -13 106 -69 83z m58 -47 c0 -14 -33 -34 -47 -29 -14 6 -14 8 3 20 17 12 44
18 44 9z"/>
<path d="M8518 443 c21 -52 19 -73 -6 -73 -12 0 -13 -3 -4 -12 17 -17 36 3 52
54 7 24 17 47 22 53 11 12 10 25 -1 25 -4 0 -15 -17 -23 -37 l-15 -38 -9 34
c-6 19 -15 36 -22 39 -8 2 -6 -12 6 -45z"/>
<path d="M3181 404 c0 -11 3 -14 6 -6 3 7 2 16 -1 19 -3 4 -6 -2 -5 -13z"/>
</g>
</svg>
